<svg width="68" height="68" viewBox="0 0 68 68" fill="none" xmlns="http://www.w3.org/2000/svg">
<path d="M34.4375 10.875C37.1042 10.8333 39.2917 11.3125 41 12.3125C42.75 13.3125 44.1667 14.5 45.25 15.875C46.3333 17.25 47.1667 18.6458 47.75 20.0625C48.3333 21.4375 48.7917 22.5208 49.125 23.3125C49.2083 23.5208 49.375 23.7917 49.625 24.125C49.8333 24.4167 50.125 24.7708 50.5 25.1875C50.9167 25.5625 51.4375 26 52.0625 26.5C50.7708 26.5417 49.625 26.5833 48.625 26.625C47.625 26.625 46.7708 26.6458 46.0625 26.6875C45.2708 26.7292 44.5625 26.7708 43.9375 26.8125C43.3125 26.8542 42.5417 26.9167 41.625 27C40.7917 27.0833 39.7708 27.1667 38.5625 27.25C37.3542 27.3333 35.875 27.4583 34.125 27.625C35.1667 26.375 35.9792 25.2708 36.5625 24.3125C37.1875 23.3125 37.6458 22.4375 37.9375 21.6875C38.2708 20.8958 38.4583 20.2083 38.5 19.625C38.5833 19.0417 38.5625 18.5417 38.4375 18.125C38.1875 17.1667 37.5417 16.4792 36.5 16.0625C33.5 15.2292 30.875 15.8958 28.625 18.0625C26.4167 20.1875 24.8333 23.6875 23.875 28.5625C23.4167 30.9792 22.9792 33.5 22.5625 36.125C22.1875 38.7083 22.0417 41.0833 22.125 43.25C22.2083 45.375 22.625 47.1042 23.375 48.4375C24.125 49.7708 25.4167 50.3958 27.25 50.3125C29.0417 50.2292 30.5625 49.9375 31.8125 49.4375C33.0625 48.8958 34.0625 48.2708 34.8125 47.5625C35.5625 46.8125 36.0833 46.0208 36.375 45.1875C36.7083 44.3125 36.8333 43.5 36.75 42.75C36.5833 42.1667 36.1458 41.5417 35.4375 40.875C34.8125 40.2917 33.875 39.6458 32.625 38.9375C31.375 38.1875 29.5833 37.4167 27.25 36.625C29.4583 36.5 31.2708 36.4167 32.6875 36.375C34.1458 36.2917 35.2917 36.2083 36.125 36.125C37.125 36.0417 37.8958 35.9792 38.4375 35.9375C38.9375 35.8958 39.6667 35.8542 40.625 35.8125C41.4583 35.7708 42.5208 35.75 43.8125 35.75C45.1458 35.75 46.8125 35.7292 48.8125 35.6875C48.0625 36.4375 47.4792 37.125 47.0625 37.75C46.8542 38.0833 46.6667 38.375 46.5 38.625C46.3333 39.0417 46.2708 39.8958 46.3125 41.1875C46.3125 42.2708 46.3958 43.875 46.5625 46C46.7292 48.0833 47.0417 50.9375 47.5 54.5625L39.1875 55.6875L39.5625 47.25C38.6042 49.5417 37.3958 51.25 35.9375 52.375C34.5208 53.5 33.1667 54.2917 31.875 54.75C30.3333 55.2917 28.7292 55.5417 27.0625 55.5C24.8958 55.2917 22.7292 54.7917 20.5625 54C18.3958 53.2083 16.4792 52 14.8125 50.375C13.1458 48.7083 11.8542 46.5625 10.9375 43.9375C10.0625 41.3125 9.79167 38.0625 10.125 34.1875C10.5 30.3125 11.4167 26.9375 12.875 24.0625C14.375 21.1458 16.2292 18.7292 18.4375 16.8125C20.6458 14.8958 23.125 13.4583 25.875 12.5C28.6667 11.5 31.5208 10.9583 34.4375 10.875Z" fill="#1A1B4B"/>
<path d="M31.3125 12.375C33.0208 12.5833 34.75 12.7292 36.5 12.8125C38.2917 12.8958 39.9167 12.9375 41.375 12.9375C43.0833 12.9375 44.75 12.8958 46.375 12.8125C48.0417 12.7708 49.7917 12.6875 51.625 12.5625C53.2083 12.4792 55 12.375 57 12.25C59 12.125 61.0833 12 63.25 11.875L63.625 17.3125C63.625 17.6875 63.6458 18.1667 63.6875 18.75C63.6875 19.25 63.6875 19.875 63.6875 20.625C63.7292 21.375 63.7708 22.25 63.8125 23.25C62.3125 24.5417 60.9583 25.7708 59.75 26.9375C58.5833 28.0625 57.5833 29.0625 56.75 29.9375C55.75 30.9792 54.875 31.9375 54.125 32.8125C53.1667 33.9375 52.1458 35.3125 51.0625 36.9375C49.9792 38.5208 48.9583 40.0833 48 41.625C47.0833 43.125 46.3333 44.4792 45.75 45.6875C45.1667 46.8542 44.9167 47.5833 45 47.875C45.0417 48.0833 45.4583 48.2083 46.25 48.25C47.0417 48.25 48 48.2083 49.125 48.125C50.2917 48.0417 51.5625 47.9167 52.9375 47.75C54.3542 47.5417 55.6667 47.3333 56.875 47.125C58.125 46.875 59.2292 46.625 60.1875 46.375C61.1458 46.125 61.7708 45.875 62.0625 45.625C62.4375 45.2917 62.8542 44.6875 63.3125 43.8125C63.7292 43.0625 64.1875 42.0208 64.6875 40.6875C65.2292 39.3125 65.8333 37.4792 66.5 35.1875C66.5417 36.8958 66.5625 38.3542 66.5625 39.5625C66.6042 40.7708 66.6667 41.7917 66.75 42.625C66.7917 43.5833 66.8542 44.375 66.9375 45C66.9792 45.6667 67.0625 46.4167 67.1875 47.25C67.2708 47.9583 67.375 48.8542 67.5 49.9375C67.625 51.0208 67.7917 52.2292 68 53.5625C65 53.1875 62.4792 52.9375 60.4375 52.8125C58.3958 52.6458 56.75 52.5417 55.5 52.5C54.0417 52.4583 52.875 52.4583 52 52.5C51.0833 52.625 49.8333 52.8125 48.25 53.0625C46.9167 53.2708 45.1458 53.6042 42.9375 54.0625C40.7292 54.4792 37.9583 55.0417 34.625 55.75C34.5417 54.9583 34.4583 54.2708 34.375 53.6875C34.2917 53.1042 34.2083 52.5833 34.125 52.125C34.0417 51.6667 33.9583 51.2292 33.875 50.8125C33.7917 50.4375 33.6875 49.9167 33.5625 49.25C33.4792 48.6667 33.3333 47.9583 33.125 47.125C32.9583 46.25 32.75 45.1667 32.5 43.875C35 41.2917 37.0625 39.125 38.6875 37.375C40.3542 35.5833 41.6875 34.125 42.6875 33C43.8542 31.6667 44.7708 30.6042 45.4375 29.8125C46.0625 29.0208 46.875 28.0625 47.875 26.9375C48.7083 25.9792 49.7917 24.7917 51.125 23.375C52.4583 21.9167 54.0625 20.1875 55.9375 18.1875C54.0208 18.1042 52.2292 18.1042 50.5625 18.1875C48.9375 18.2708 47.5208 18.3958 46.3125 18.5625C44.8958 18.7292 43.5833 18.9583 42.375 19.25C41.25 19.5833 40.1042 20.125 38.9375 20.875C37.9375 21.5 36.8542 22.375 35.6875 23.5C34.5208 24.625 33.4167 26.0833 32.375 27.875C32.2917 26.5 32.2292 25.3333 32.1875 24.375C32.1458 23.4167 32.1042 22.625 32.0625 22C32.0208 21.2917 31.9792 20.7083 31.9375 20.25C31.9375 19.7917 31.8958 19.1875 31.8125 18.4375C31.7292 17.8125 31.6458 17.0208 31.5625 16.0625C31.4792 15.0625 31.3958 13.8333 31.3125 12.375Z" fill="#1A1B4B"/>
</svg>
